<svg width="20" height="20" viewBox="0 0 20 20" fill="none" xmlns="http://www.w3.org/2000/svg">
<path opacity="0.3" d="M10 17C13.866 17 17 13.866 17 10C17 6.13401 13.866 3 10 3C6.13401 3 3 6.13401 3 10C3 13.866 6.13401 17 10 17Z" fill="#7A8B94"/>
<path d="M18.5 7.1255C18.5 6.55005 18.0081 6.08355 17.4013 6.08355H13.0063C12.3995 6.08355 11.9075 6.55005 11.9075 7.1255C11.9075 7.70095 12.3995 8.16745 13.0063 8.16745H17.4013C18.0081 8.16745 18.5 7.70095 18.5 7.1255ZM15.2039 10.2517C15.8107 10.2517 16.3027 9.78522 16.3027 9.20977V5.04195C16.3027 4.4665 15.8107 4 15.2039 4C14.5971 4 14.1052 4.4665 14.1052 5.04195V9.20977C14.1052 9.78522 14.5971 10.2517 15.2039 10.2517ZM1.57726 14.5962C1.29562 15.2695 1.81876 16 2.5826 16H3.0302C3.48557 16 3.89215 15.7295 4.04715 15.3235L4.70282 13.6058H9.88167L10.5535 15.3299C10.7104 15.7326 11.1152 16 11.568 16H12.0187C12.7832 16 13.3063 15.2684 13.0235 14.5949L8.8583 4.67525C8.69447 4.28508 8.29635 4.02903 7.8535 4.02903H6.73202C6.28865 4.02903 5.8902 4.28565 5.7267 4.6765L1.57726 14.5962ZM5.46442 11.5826L7.26667 6.91227C7.2706 6.9021 7.28082 6.89533 7.29225 6.89533C7.30367 6.89533 7.3139 6.9021 7.31782 6.91227L9.12007 11.5826H5.46442Z" fill="#7A8B94"/>
</svg>
