<svg width="131" height="31" viewBox="0 0 131 31" fill="none" xmlns="http://www.w3.org/2000/svg">
<path d="M33.4538 28.2845C32.3496 28.2845 31.3559 28.1741 30.4726 27.9532C29.6062 27.7494 28.8588 27.4351 28.2303 27.0105C27.6188 26.5688 27.1347 26.0252 26.7779 25.3797C26.4854 24.8093 26.3 24.1697 26.2215 23.4608C26.1988 23.2559 26.3287 23.0675 26.5247 23.0037L28.8364 22.2515C29.121 22.1589 29.414 22.3639 29.4634 22.6591C29.5485 23.1667 29.715 23.6064 29.963 23.9783C30.3197 24.4879 30.8208 24.8616 31.4663 25.0994C32.1118 25.3373 32.8337 25.4562 33.6321 25.4562C34.3965 25.4562 35.042 25.3627 35.5686 25.1759C36.0952 24.989 36.4944 24.7427 36.7662 24.437C37.038 24.1142 37.1739 23.766 37.1739 23.3923C37.1739 22.9506 37.004 22.5939 36.6643 22.3221C36.3245 22.0503 35.8574 21.821 35.2628 21.6341C34.6853 21.4473 34.0228 21.2689 33.2754 21.0991C32.443 20.9122 31.6192 20.6999 30.8038 20.4621C30.0054 20.2242 29.275 19.9185 28.6125 19.5448C27.967 19.1711 27.4489 18.6869 27.0582 18.0924C26.6845 17.4979 26.4977 16.7504 26.4977 15.8501C26.4977 14.8139 26.7525 13.9221 27.2621 13.1747C27.7887 12.4103 28.5531 11.8158 29.5553 11.3911C30.5575 10.9664 31.7636 10.7541 33.1735 10.7541C34.6004 10.7541 35.8149 10.9664 36.8171 11.3911C37.8363 11.7988 38.6262 12.3848 39.1868 13.1492C39.6811 13.8083 39.9773 14.5797 40.0754 15.4634C40.0987 15.674 39.959 15.8648 39.7549 15.9214L37.3653 16.5831C37.0769 16.663 36.7939 16.4448 36.7517 16.1485C36.7111 15.8629 36.6395 15.602 36.5369 15.366C36.367 14.9753 36.1292 14.6526 35.8234 14.3978C35.5176 14.126 35.1354 13.9221 34.6768 13.7862C34.2351 13.6503 33.7255 13.5824 33.148 13.5824C32.4855 13.5824 31.908 13.6673 31.4153 13.8372C30.9397 14.0071 30.5745 14.2364 30.3197 14.5252C30.0819 14.8139 29.963 15.1537 29.963 15.5444C29.963 16.003 30.1498 16.3852 30.5235 16.691C30.9142 16.9798 31.4238 17.2176 32.0523 17.4044C32.6978 17.5913 33.4028 17.7696 34.1672 17.9395C34.8976 18.0924 35.6366 18.2877 36.384 18.5256C37.1484 18.7464 37.8533 19.0437 38.4988 19.4174C39.1613 19.7741 39.6879 20.2667 40.0786 20.8952C40.4863 21.5067 40.6901 22.2796 40.6901 23.2139C40.6901 24.2331 40.4183 25.1249 39.8748 25.8893C39.3312 26.6537 38.5158 27.2483 37.4287 27.6729C36.3585 28.0806 35.0335 28.2845 33.4538 28.2845Z" fill="#FEFAF1"/>
<path d="M42.5457 27.9278C42.2957 27.9278 42.0929 27.725 42.0929 27.4749V10.1622C42.0929 9.91214 42.2957 9.70941 42.5457 9.70941H45.2583C45.5084 9.70941 45.7111 9.91214 45.7111 10.1622V18.9714C45.7111 19.3346 46.1155 19.5473 46.4056 19.3287C46.6829 19.1197 46.9526 18.9029 47.2145 18.6784C47.7071 18.2538 48.1487 17.8121 48.5394 17.3535C48.9471 16.8948 49.3038 16.4277 49.6096 15.9521C49.8729 15.5641 50.1022 15.1818 50.2977 14.8051C50.3778 14.6507 50.5356 14.5506 50.7095 14.5506H53.9636C54.2831 14.5506 54.5008 14.8723 54.3641 15.161C54.1527 15.6075 53.9014 16.0581 53.61 16.5126C53.2023 17.1581 52.7097 17.7612 52.1321 18.3217C51.5716 18.8653 50.9176 19.3324 50.1702 19.7231C49.4726 20.0878 48.7084 20.3414 47.8776 20.4841C47.7749 20.5018 47.6986 20.5901 47.6986 20.6943C47.6986 20.8256 47.8174 20.9247 47.9471 20.9047C48.9747 20.746 49.8346 20.7769 50.5269 20.9971C51.2743 21.235 51.8858 21.6172 52.3615 22.1437C52.8541 22.6533 53.2448 23.2479 53.5335 23.9274C53.8223 24.5898 54.0856 25.2608 54.3234 25.9403L54.7382 27.3469C54.8237 27.637 54.6063 27.9278 54.3039 27.9278H51.2574C51.0521 27.9278 50.8724 27.7896 50.8198 27.5911L50.5778 26.6792C50.34 25.8469 50.0767 25.1164 49.788 24.4879C49.4992 23.8594 49.117 23.3753 48.6413 23.0356C48.1827 22.6788 47.5457 22.5005 46.7303 22.5005H46.1639C45.9138 22.5005 45.7111 22.7032 45.7111 22.9533V27.4749C45.7111 27.725 45.5084 27.9278 45.2583 27.9278H42.5457Z" fill="#FEFAF1"/>
<path d="M62.7 27.9278C62.4499 27.9278 62.2472 27.725 62.2472 27.4749V12.1495C62.2472 11.8994 62.4499 11.6967 62.7 11.6967H65.4126C65.6626 11.6967 65.8654 11.8994 65.8654 12.1495V27.4749C65.8654 27.725 65.6626 27.9278 65.4126 27.9278H62.7Z" fill="#FEFAF1"/>
<path d="M68.858 27.9278C68.6079 27.9278 68.4052 27.725 68.4052 27.4749V9.22704C68.4052 8.97696 68.6079 8.77423 68.858 8.77423H71.5706C71.8207 8.77423 72.0234 8.97696 72.0234 9.22704V27.4749C72.0234 27.725 71.8207 27.9278 71.5706 27.9278H68.858Z" fill="#FEFAF1"/>
<path fill-rule="evenodd" clip-rule="evenodd" d="M56.5419 14.5506C56.2919 14.5506 56.0891 14.7534 56.0891 15.0035V27.4749C56.0891 27.725 56.2919 27.9278 56.5419 27.9278H59.3055C59.5555 27.9278 59.7583 27.725 59.7583 27.4749V15.0035C59.7583 14.7534 59.5555 14.5506 59.3055 14.5506H56.5419Z" fill="#FEFAF1"/>
<path d="M57.9492 12.5377C57.2357 12.5377 56.6837 12.3933 56.293 12.1045C55.9193 11.7988 55.7324 11.3571 55.7324 10.7796C55.7324 10.185 55.9193 9.73489 56.293 9.42913C56.6837 9.12336 57.2357 8.97048 57.9492 8.97048C58.6796 8.97048 59.2317 9.12336 59.6054 9.42913C59.9961 9.73489 60.1914 10.185 60.1914 10.7796C60.1914 11.3401 59.9961 11.7733 59.6054 12.0791C59.2317 12.3848 58.6796 12.5377 57.9492 12.5377Z" fill="#FEFAF1"/>
<path d="M19.0964 11.9488C19.8295 12.3718 19.8295 13.4298 19.0964 13.8527L17.2232 14.9334C16.8833 15.1294 16.4647 15.1294 16.1248 14.9333L11.0273 11.9918C10.6872 11.7954 10.2682 11.7954 9.92812 11.9919L5.9313 14.2988C5.19844 14.7216 5.19818 15.7792 5.93083 16.2024L8.83024 17.8759C9.56308 18.2988 9.56315 19.3565 8.83036 19.7795L6.95815 20.8611C6.61807 21.0576 6.19896 21.0577 5.8588 20.8613L0.763677 17.9188C0.423737 17.7225 0.214263 17.3599 0.214122 16.9674L0.212891 13.535C0.21275 13.1423 0.422178 12.7794 0.762256 12.583L9.93024 7.29068C10.2703 7.09444 10.6892 7.09452 11.0292 7.29089L19.0964 11.9488Z" fill="#FEFAF1"/>
<path fill-rule="evenodd" clip-rule="evenodd" d="M19.0964 13.8527L17.2232 14.9334C16.8833 15.1294 16.4647 15.1294 16.1248 14.9333L11.0273 11.9918C10.6872 11.7954 10.2682 11.7954 9.92812 11.9919L5.9313 14.2988C5.19844 14.7216 5.19818 15.7792 5.93083 16.2024L8.83024 17.8759C9.56308 18.2988 9.56315 19.3565 8.83036 19.7795L6.95815 20.8611C6.61807 21.0576 6.19896 21.0577 5.8588 20.8613L0.763677 17.9188C0.423737 17.7225 0.214263 17.3599 0.214122 16.9674L0.212891 13.535C0.21275 13.1423 0.422178 12.7794 0.762256 12.583L9.93024 7.29068C10.2703 7.09444 10.6892 7.09452 11.0292 7.29089L19.0964 11.9488C19.8295 12.3718 19.8295 13.4298 19.0964 13.8527Z" fill="#FEFAF1"/>
<path d="M20.197 19.7366C20.5368 19.9328 20.7462 20.2954 20.7463 20.6879L20.7475 24.1204C20.7477 24.5131 20.5383 24.876 20.1982 25.0724L11.032 30.3661C10.6919 30.5625 10.2728 30.5625 9.93272 30.3661L2.34023 25.981L1.86363 25.7062C1.13046 25.2836 1.13 24.2257 1.86281 23.8024L3.73537 22.7208C4.07535 22.5245 4.49425 22.5244 4.83431 22.7206L9.92817 25.6619C10.2682 25.8583 10.6872 25.8583 11.0273 25.662L15.0244 23.355C15.7571 22.9321 15.7573 21.8746 15.0247 21.4515L12.1295 19.7796C11.3967 19.3568 11.3965 18.2992 12.1291 17.8761L14.0023 16.7941C14.3424 16.5977 14.7614 16.5977 15.1015 16.794L20.197 19.7366Z" fill="#FEFAF1"/>
<path fill-rule="evenodd" clip-rule="evenodd" d="M20.7463 20.6879L20.7475 24.1204C20.7477 24.5131 20.5383 24.876 20.1982 25.0724L11.032 30.3661C10.6919 30.5625 10.2728 30.5625 9.93272 30.3661L2.34023 25.981L1.86363 25.7062C1.13046 25.2836 1.13 24.2257 1.86281 23.8024L3.73537 22.7208C4.07535 22.5245 4.49425 22.5244 4.83431 22.7206L9.92817 25.6619C10.2682 25.8583 10.6872 25.8583 11.0273 25.662L15.0244 23.355C15.7571 22.9321 15.7573 21.8746 15.0247 21.4515L12.1295 19.7796C11.3967 19.3568 11.3965 18.2992 12.1291 17.8761L14.0023 16.7941C14.3424 16.5977 14.7614 16.5977 15.1015 16.794L20.197 19.7366C20.5368 19.9328 20.7462 20.2954 20.7463 20.6879Z" fill="#FEFAF1"/>
<path d="M74.8164 27.9278C74.5662 27.9278 74.3634 27.725 74.3634 27.4748V6.3596C74.3634 6.10943 74.5662 5.90663 74.8164 5.90663H77.5778C77.828 5.90663 78.0308 6.10943 78.0308 6.3596V27.4748C78.0308 27.725 77.828 27.9278 77.5778 27.9278H74.8164ZM76.2226 3.89464C75.5095 3.89464 74.9576 3.75032 74.5671 3.46168C74.1936 3.15606 74.0068 2.71462 74.0068 2.13734C74.0068 1.54308 74.1936 1.09315 74.5671 0.787528C74.9576 0.481911 75.5095 0.329102 76.2226 0.329102C76.9527 0.329102 77.5045 0.481911 77.878 0.787528C78.2685 1.09315 78.4638 1.54308 78.4638 2.13734C78.4638 2.69764 78.2685 3.1306 77.878 3.43622C77.5045 3.74183 76.9527 3.89464 76.2226 3.89464Z" fill="#FEFAF1"/>
<path d="M80.8101 27.9278C80.56 27.9278 80.3572 27.725 80.3572 27.4748V15.01C80.3572 14.7598 80.56 14.557 80.8101 14.557H82.9065C83.1578 14.557 83.3611 14.7616 83.3595 15.0129L83.3387 18.2714C83.3377 18.428 83.4644 18.5555 83.6211 18.5555C83.7528 18.5555 83.8667 18.4642 83.8986 18.3364C84.1156 17.4653 84.4123 16.7319 84.7886 16.136C85.1961 15.4909 85.7055 15.007 86.3167 14.6844C86.9449 14.3618 87.6835 14.2005 88.5324 14.2005C90.0775 14.2005 91.249 14.7438 92.047 15.8304C92.862 16.9171 93.2695 18.6234 93.2695 20.9495V27.4748C93.2695 27.725 93.0667 27.9278 92.8165 27.9278H90.0296C89.7794 27.9278 89.5766 27.725 89.5766 27.4748V21.357C89.5766 19.9308 89.3644 18.8951 88.9399 18.2499C88.5324 17.5877 87.9297 17.2566 87.1317 17.2566C86.4525 17.2566 85.8837 17.4689 85.4253 17.8933C84.9669 18.3178 84.6188 18.8781 84.3811 19.5742C84.1604 20.2534 84.0416 21.0174 84.0246 21.8664V27.4748C84.0246 27.725 83.8218 27.9278 83.5716 27.9278H80.8101Z" fill="#FEFAF1"/>
<path d="M100.271 28.2334C98.7767 28.2334 97.6731 27.8429 96.96 27.0619C96.2639 26.2639 95.9158 24.999 95.9158 23.2671V17.8879C95.9158 17.6377 95.713 17.4349 95.4628 17.4349H94.4413C94.188 17.4349 93.9839 17.2272 93.9884 16.9739L94.0233 15.002C94.0277 14.755 94.2291 14.557 94.4762 14.557H95.381C95.9073 14.557 96.2978 14.4806 96.5525 14.3278C96.8072 14.175 96.96 13.8948 97.0109 13.4874L97.2769 11.9529C97.3145 11.7358 97.5029 11.5772 97.7232 11.5772H98.9774C99.2276 11.5772 99.4304 11.7801 99.4304 12.0302V14.104C99.4304 14.3542 99.6332 14.557 99.8834 14.557H102.365C102.615 14.557 102.818 14.7598 102.818 15.01V17.0838C102.818 17.334 102.615 17.5368 102.365 17.5368H99.8834C99.6332 17.5368 99.4304 17.7396 99.4304 17.9898V23.1143C99.4304 23.7256 99.5747 24.167 99.8634 24.4387C100.152 24.7103 100.593 24.8462 101.188 24.8462C101.51 24.8462 101.816 24.8122 102.105 24.7443C102.46 24.6653 102.894 24.9106 102.894 25.2747V27.4961C102.894 27.6927 102.768 27.868 102.579 27.9221C102.173 28.0381 101.794 28.1164 101.442 28.157C101.001 28.2079 100.61 28.2334 100.271 28.2334Z" fill="#FEFAF1"/>
<path d="M104.81 27.9278C104.56 27.9278 104.358 27.725 104.358 27.4748V15.01C104.358 14.7598 104.56 14.557 104.81 14.557H106.907C107.158 14.557 107.361 14.7616 107.36 15.0129L107.339 18.2714C107.338 18.428 107.465 18.5555 107.621 18.5555C107.753 18.5555 107.867 18.4642 107.899 18.3364C108.116 17.4653 108.413 16.7319 108.789 16.136C109.196 15.4909 109.706 15.007 110.317 14.6844C110.945 14.3618 111.684 14.2005 112.533 14.2005C114.078 14.2005 115.249 14.7438 116.047 15.8304C116.862 16.9171 117.27 18.6234 117.27 20.9495V27.4748C117.27 27.725 117.067 27.9278 116.817 27.9278H114.03C113.78 27.9278 113.577 27.725 113.577 27.4748V21.357C113.577 19.9308 113.365 18.8951 112.94 18.2499C112.533 17.5877 111.93 17.2566 111.132 17.2566C110.453 17.2566 109.884 17.4689 109.426 17.8933C108.967 18.3178 108.619 18.8781 108.381 19.5742C108.161 20.2534 108.042 21.0174 108.025 21.8664V27.4748C108.025 27.725 107.822 27.9278 107.572 27.9278H104.81Z" fill="#FEFAF1"/>
<path d="M124.703 28.2844C123.803 28.2844 122.988 28.1995 122.258 28.0297C121.528 27.8599 120.9 27.6137 120.373 27.2911C119.847 26.9685 119.423 26.5865 119.1 26.145C118.847 25.7861 118.663 25.396 118.545 24.9747C118.488 24.7685 118.605 24.559 118.803 24.4779L120.748 23.6825C121.014 23.5735 121.314 23.7418 121.448 23.9966C121.542 24.1762 121.668 24.349 121.825 24.5151C122.131 24.8377 122.538 25.1008 123.048 25.3046C123.574 25.4913 124.202 25.5847 124.932 25.5847C125.713 25.5847 126.316 25.4744 126.74 25.2536C127.165 25.0159 127.377 24.6849 127.377 24.2604C127.377 23.9378 127.258 23.6831 127.021 23.4963C126.783 23.3096 126.435 23.1483 125.976 23.0124C125.518 22.8766 124.966 22.7493 124.321 22.6304C123.693 22.4776 123.048 22.3163 122.385 22.1465C121.74 21.9767 121.137 21.739 120.577 21.4334C120.034 21.1278 119.584 20.7288 119.227 20.2364C118.888 19.7271 118.718 19.0819 118.718 18.3008C118.718 17.4859 118.939 16.7728 119.38 16.1615C119.822 15.5503 120.467 15.0749 121.316 14.7353C122.165 14.3787 123.2 14.2005 124.423 14.2005C125.526 14.2005 126.494 14.3533 127.326 14.6589C128.158 14.9475 128.837 15.372 129.364 15.9323C129.81 16.3782 130.135 16.8985 130.341 17.4931C130.418 17.7159 130.287 17.9507 130.063 18.0253L127.982 18.719C127.718 18.807 127.441 18.6344 127.331 18.3791C127.242 18.1757 127.122 17.9883 126.97 17.8169C126.715 17.5113 126.367 17.2821 125.925 17.1293C125.501 16.9765 125 16.9001 124.423 16.9001C123.693 16.9001 123.124 17.0189 122.716 17.2566C122.326 17.4943 122.131 17.8085 122.131 18.199C122.131 18.5216 122.258 18.7847 122.513 18.9885C122.784 19.1922 123.158 19.362 123.633 19.4978C124.109 19.6167 124.669 19.744 125.314 19.8799C125.993 20.0157 126.656 20.177 127.301 20.3638C127.946 20.5335 128.523 20.7628 129.033 21.0514C129.559 21.34 129.975 21.7221 130.281 22.1975C130.586 22.6729 130.739 23.2841 130.739 24.0312C130.739 24.9141 130.501 25.6781 130.026 26.3233C129.55 26.9515 128.863 27.4354 127.963 27.775C127.063 28.1146 125.976 28.2844 124.703 28.2844Z" fill="#FEFAF1"/>
</svg>
