<svg width="25" height="25" viewBox="0 0 25 25" fill="none" xmlns="http://www.w3.org/2000/svg">
<mask id="mask0_115_228" style="mask-type:alpha" maskUnits="userSpaceOnUse" x="0" y="0" width="25" height="25">
<rect x="0.384766" y="0.799805" width="24" height="24" fill="#D9D9D9"/>
</mask>
<g mask="url(#mask0_115_228)">
<path d="M6.63477 15.5498H14.279L15.779 14.0498H6.63477V15.5498ZM6.63477 11.5498H12.1348V10.0498H6.63477V11.5498ZM4.38477 7.7998V17.7998H12.029L10.529 19.2998H2.88477V6.2998H21.8848V9.44406H20.3848V7.7998H4.38477ZM22.6115 12.9268C22.6885 13.0036 22.727 13.0889 22.727 13.1826C22.727 13.2761 22.6885 13.3613 22.6115 13.4383L21.7693 14.2806L20.5 13.0113L21.3425 12.1691C21.4193 12.0921 21.5046 12.0536 21.5983 12.0536C21.6918 12.0536 21.777 12.0921 21.854 12.1691L22.6115 12.9268ZM13.5385 21.2613V19.9921L19.9193 13.6113L21.1885 14.8806L14.8078 21.2613H13.5385Z" fill="#3C4852"/>
</g>
</svg>
