<svg width="26" height="26" viewBox="0 0 26 26" fill="none" xmlns="http://www.w3.org/2000/svg">
<path d="M11.2852 18.569L19.9745 9.87974L18.2489 8.15421L11.2852 15.1179L7.77253 11.6053L6.04701 13.3308L11.2852 18.569ZM13.0107 25.2246C11.3058 25.2246 9.70348 24.9011 8.20392 24.254C6.70435 23.6069 5.39993 22.7288 4.29067 21.6195C3.1814 20.5102 2.30323 19.2058 1.65616 17.7062C1.00908 16.2067 0.685547 14.6044 0.685547 12.8994C0.685547 11.1944 1.00908 9.59215 1.65616 8.09259C2.30323 6.59302 3.1814 5.28861 4.29067 4.17934C5.39993 3.07007 6.70435 2.1919 8.20392 1.54483C9.70348 0.897755 11.3058 0.574219 13.0107 0.574219C14.7157 0.574219 16.318 0.897755 17.8176 1.54483C19.3171 2.1919 20.6216 3.07007 21.7308 4.17934C22.8401 5.28861 23.7183 6.59302 24.3653 8.09259C25.0124 9.59215 25.3359 11.1944 25.3359 12.8994C25.3359 14.6044 25.0124 16.2067 24.3653 17.7062C23.7183 19.2058 22.8401 20.5102 21.7308 21.6195C20.6216 22.7288 19.3171 23.6069 17.8176 24.254C16.318 24.9011 14.7157 25.2246 13.0107 25.2246Z" fill="#42B37A"/>
<path d="M11.2852 18.569L19.9745 9.87974L18.2489 8.15421L11.2852 15.1179L7.77253 11.6053L6.04701 13.3308L11.2852 18.569Z" fill="white"/>
</svg>
