<svg width="235" height="55" viewBox="0 0 235 55" fill="none" xmlns="http://www.w3.org/2000/svg">
<path d="M59.9851 50.7649C58.002 50.7649 56.2172 50.5666 54.6307 50.17C53.0748 49.8039 51.7323 49.2394 50.6035 48.4767C49.5052 47.6835 48.6357 46.7072 47.995 45.5478C47.4696 44.5234 47.1365 43.3745 46.9956 42.1013C46.9549 41.7333 47.1881 41.3949 47.5402 41.2803L51.692 39.9293C52.2032 39.763 52.7294 40.1313 52.8183 40.6614C52.9711 41.5731 53.2702 42.3629 53.7155 43.0308C54.3562 43.9461 55.2562 44.6173 56.4155 45.0444C57.5749 45.4715 58.8715 45.6851 60.3055 45.6851C61.6784 45.6851 62.8377 45.5173 63.7835 45.1817C64.7293 44.8461 65.4463 44.4037 65.9344 43.8546C66.4226 43.2749 66.6667 42.6494 66.6667 41.9782C66.6667 41.185 66.3616 40.5443 65.7514 40.0561C65.1412 39.568 64.3022 39.1561 63.2344 38.8205C62.1971 38.4849 61.0072 38.1646 59.6648 37.8595C58.1698 37.5239 56.6901 37.1425 55.2257 36.7154C53.7917 36.2882 52.4798 35.7391 51.29 35.0679C50.1306 34.3967 49.2001 33.5271 48.4984 32.4593C47.8272 31.3915 47.4916 30.0491 47.4916 28.4321C47.4916 26.571 47.9492 24.9693 48.8645 23.6269C49.8103 22.2539 51.1832 21.1861 52.9832 20.4234C54.7833 19.6607 56.9494 19.2793 59.4817 19.2793C62.0445 19.2793 64.2259 19.6607 66.026 20.4234C67.8565 21.1556 69.2752 22.2082 70.282 23.5811C71.1699 24.7649 71.7018 26.1504 71.8779 27.7375C71.9199 28.1157 71.669 28.4585 71.3023 28.56L67.0105 29.7485C66.4925 29.892 65.9842 29.5002 65.9085 28.968C65.8355 28.455 65.7069 27.9865 65.5226 27.5626C65.2175 26.8609 64.7903 26.2812 64.2412 25.8235C63.692 25.3354 63.0055 24.9693 62.1818 24.7252C61.3886 24.4811 60.4733 24.3591 59.436 24.3591C58.2461 24.3591 57.2088 24.5116 56.324 24.8167C55.4697 25.1218 54.8138 25.5337 54.3562 26.0524C53.929 26.571 53.7155 27.1812 53.7155 27.8829C53.7155 28.7067 54.0511 29.3931 54.7223 29.9423C55.424 30.461 56.3393 30.8881 57.4681 31.2237C58.6275 31.5593 59.8936 31.8796 61.2665 32.1847C62.5784 32.4593 63.9056 32.8102 65.248 33.2373C66.6209 33.6339 67.887 34.1678 69.0464 34.839C70.2363 35.4797 71.182 36.3645 71.8838 37.4934C72.616 38.5917 72.9821 39.9799 72.9821 41.6579C72.9821 43.4884 72.494 45.0902 71.5177 46.4631C70.5414 47.836 69.0769 48.9038 67.1243 49.6666C65.2022 50.3988 62.8225 50.7649 59.9851 50.7649Z" fill="#224750"/>
<path d="M76.3149 50.1242C75.8657 50.1242 75.5016 49.7601 75.5016 49.311V18.2162C75.5016 17.7671 75.8657 17.403 76.3149 17.403H81.1868C81.636 17.403 82.0001 17.7671 82.0001 18.2162V34.038C82.0001 34.6903 82.7265 35.0724 83.2474 34.6798C83.7455 34.3044 84.2298 33.9151 84.7002 33.5119C85.585 32.7492 86.3782 31.9559 87.0799 31.1322C87.8121 30.3084 88.4528 29.4694 89.002 28.6151C89.4748 27.9183 89.8868 27.2317 90.2378 26.5551C90.3817 26.2778 90.6651 26.0981 90.9775 26.0981H96.8222C97.3959 26.0981 97.787 26.6758 97.5415 27.1944C97.1618 27.9964 96.7103 28.8056 96.187 29.6219C95.4547 30.7813 94.57 31.8644 93.5326 32.8712C92.5258 33.8475 91.3512 34.6865 90.0088 35.3882C88.7559 36.0432 87.3834 36.4988 85.8912 36.755C85.7067 36.7867 85.5697 36.9453 85.5697 37.1326C85.5697 37.3683 85.7831 37.5463 86.0161 37.5104C87.8616 37.2254 89.4061 37.2808 90.6495 37.6764C91.9919 38.1035 93.0903 38.79 93.9445 39.7358C94.8293 40.6511 95.531 41.7189 96.0497 42.9393C96.5683 44.1291 97.0412 45.3343 97.4683 46.5546L98.2133 49.0809C98.3669 49.6019 97.9764 50.1242 97.4332 50.1242H91.9616C91.5928 50.1242 91.2701 49.876 91.1755 49.5195L90.741 47.8818C90.3139 46.3868 89.841 45.0749 89.3223 43.9461C88.8037 42.8172 88.1172 41.9477 87.263 41.3375C86.4392 40.6968 85.2951 40.3765 83.8307 40.3765H82.8134C82.3642 40.3765 82.0001 40.7406 82.0001 41.1898V49.311C82.0001 49.7601 81.636 50.1242 81.1868 50.1242H76.3149Z" fill="#224750"/>
<path d="M112.513 50.1242C112.064 50.1242 111.7 49.7601 111.7 49.311V21.7855C111.7 21.3363 112.064 20.9722 112.513 20.9722H117.385C117.834 20.9722 118.198 21.3363 118.198 21.7855V49.311C118.198 49.7601 117.834 50.1242 117.385 50.1242H112.513Z" fill="#224750"/>
<path d="M123.573 50.1242C123.124 50.1242 122.76 49.7601 122.76 49.311V16.5366C122.76 16.0874 123.124 15.7233 123.573 15.7233H128.445C128.894 15.7233 129.259 16.0874 129.259 16.5366V49.311C129.259 49.7601 128.894 50.1242 128.445 50.1242H123.573Z" fill="#224750"/>
<path fill-rule="evenodd" clip-rule="evenodd" d="M101.453 26.0981C101.004 26.0981 100.64 26.4622 100.64 26.9114V49.311C100.64 49.7601 101.004 50.1242 101.453 50.1242H106.416C106.866 50.1242 107.23 49.7601 107.23 49.311V26.9114C107.23 26.4622 106.866 26.0981 106.416 26.0981H101.453Z" fill="#224750"/>
<path d="M103.98 22.4828C102.699 22.4828 101.707 22.2234 101.006 21.7048C100.335 21.1556 99.9989 20.3624 99.9989 19.3251C99.9989 18.2572 100.335 17.4487 101.006 16.8996C101.707 16.3504 102.699 16.0758 103.98 16.0758C105.292 16.0758 106.284 16.3504 106.955 16.8996C107.657 17.4487 108.008 18.2572 108.008 19.3251C108.008 20.3319 107.657 21.1098 106.955 21.659C106.284 22.2082 105.292 22.4828 103.98 22.4828Z" fill="#224750"/>
<path d="M34.1973 21.4246C35.5139 22.1842 35.5139 24.0845 34.1972 24.8441L30.8327 26.785C30.2223 27.1372 29.4704 27.1372 28.86 26.785L19.7046 21.5017C19.0938 21.1491 18.3412 21.1491 17.7304 21.5019L10.5519 25.6453C9.2356 26.4047 9.23513 28.3042 10.551 29.0643L15.7585 32.07C17.0748 32.8296 17.0749 34.7293 15.7587 35.4891L12.3962 37.4316C11.7853 37.7845 11.0326 37.7847 10.4217 37.432L1.2705 32.147C0.659942 31.7946 0.283715 31.1432 0.283462 30.4383L0.28125 24.2736C0.280997 23.5682 0.657143 22.9163 1.26794 22.5636L17.7342 13.0583C18.345 12.7059 19.0974 12.706 19.708 13.0587L34.1973 21.4246Z" fill="#38A56F"/>
<path fill-rule="evenodd" clip-rule="evenodd" d="M34.1972 24.8441L30.8327 26.785C30.2223 27.1372 29.4704 27.1372 28.86 26.785L19.7046 21.5017C19.0938 21.1491 18.3412 21.1491 17.7304 21.5019L10.5519 25.6453C9.2356 26.4047 9.23513 28.3042 10.551 29.0643L15.7585 32.07C17.0748 32.8296 17.0749 34.7293 15.7587 35.4891L12.3962 37.4316C11.7853 37.7845 11.0326 37.7847 10.4217 37.432L1.2705 32.147C0.659942 31.7946 0.283715 31.1432 0.283462 30.4383L0.28125 24.2736C0.280997 23.5682 0.657143 22.9163 1.26794 22.5636L17.7342 13.0583C18.345 12.7059 19.0974 12.706 19.708 13.0587L34.1973 21.4246C35.5139 22.1842 35.5139 24.0845 34.1972 24.8441Z" fill="#38A56F"/>
<path d="M36.1727 35.412C36.7831 35.7645 37.1592 36.4158 37.1594 37.1206L37.1616 43.2856C37.1619 43.991 36.7857 44.6428 36.175 44.9956L19.7118 54.5034C19.101 54.8561 18.3483 54.8561 17.7375 54.5033L4.10095 46.6273L3.24494 46.1339C1.92812 45.3748 1.92731 43.4747 3.24347 42.7145L6.60671 40.772C7.21732 40.4193 7.9697 40.4192 8.58046 40.7716L17.7294 46.0542C18.3401 46.407 19.0926 46.4071 19.7034 46.0545L26.8824 41.911C28.1985 41.1515 28.1988 39.2521 26.883 38.4921L21.6831 35.4894C20.3669 34.7299 20.3665 32.8305 21.6824 32.0705L25.0468 30.1272C25.6576 29.7745 26.4102 29.7744 27.021 30.1271L36.1727 35.412Z" fill="#38A56F"/>
<path fill-rule="evenodd" clip-rule="evenodd" d="M37.1594 37.1206L37.1616 43.2856C37.1619 43.991 36.7857 44.6428 36.175 44.9956L19.7118 54.5034C19.101 54.8561 18.3483 54.8561 17.7375 54.5033L4.10095 46.6273L3.24494 46.1339C1.92812 45.3748 1.92731 43.4747 3.24347 42.7145L6.60671 40.772C7.21732 40.4193 7.9697 40.4192 8.58046 40.7716L17.7294 46.0542C18.3401 46.407 19.0926 46.4071 19.7034 46.0545L26.8824 41.911C28.1985 41.1515 28.1988 39.2521 26.883 38.4921L21.6831 35.4894C20.3669 34.7299 20.3665 32.8305 21.6824 32.0705L25.0468 30.1272C25.6576 29.7745 26.4102 29.7744 27.021 30.1271L36.1727 35.412C36.7831 35.7645 37.1592 36.4158 37.1594 37.1206Z" fill="#38A56F"/>
<path d="M134.274 50.1246C133.824 50.1246 133.46 49.7604 133.46 49.311V11.3868C133.46 10.9375 133.824 10.5732 134.274 10.5732H139.234C139.683 10.5732 140.047 10.9375 140.047 11.3868V49.311C140.047 49.7604 139.683 50.1246 139.234 50.1246H134.274ZM136.799 6.95959C135.519 6.95959 134.528 6.70039 133.826 6.18197C133.155 5.63306 132.82 4.8402 132.82 3.80337C132.82 2.73605 133.155 1.92794 133.826 1.37903C134.528 0.830118 135.519 0.555664 136.799 0.555664C138.111 0.555664 139.102 0.830118 139.773 1.37903C140.474 1.92794 140.825 2.73605 140.825 3.80337C140.825 4.8097 140.474 5.58732 139.773 6.13623C139.102 6.68514 138.111 6.95959 136.799 6.95959Z" fill="#38A56F"/>
<path d="M145.039 50.1246C144.59 50.1246 144.225 49.7604 144.225 49.311V26.9235C144.225 26.4741 144.59 26.1099 145.039 26.1099H148.804C149.256 26.1099 149.621 26.4773 149.618 26.9286L149.58 32.7811C149.579 33.0624 149.806 33.2914 150.088 33.2914C150.324 33.2914 150.529 33.1274 150.586 32.8978C150.976 31.3334 151.509 30.0161 152.185 28.9459C152.916 27.7871 153.831 26.918 154.929 26.3386C156.057 25.7592 157.384 25.4695 158.909 25.4695C161.684 25.4695 163.788 26.4453 165.221 28.397C166.685 30.3487 167.417 33.4134 167.417 37.5912V49.311C167.417 49.7604 167.053 50.1246 166.603 50.1246H161.598C161.148 50.1246 160.784 49.7604 160.784 49.311V38.3231C160.784 35.7615 160.403 33.9013 159.641 32.7425C158.909 31.5532 157.826 30.9586 156.393 30.9586C155.173 30.9586 154.151 31.3398 153.328 32.1021C152.505 32.8645 151.88 33.8708 151.453 35.1211C151.056 36.3409 150.843 37.7132 150.812 39.2379V49.311C150.812 49.7604 150.448 50.1246 149.999 50.1246H145.039Z" fill="#38A56F"/>
<path d="M179.992 50.6735C177.308 50.6735 175.326 49.9721 174.045 48.5694C172.795 47.1361 172.17 44.8642 172.17 41.7538V32.0923C172.17 31.643 171.805 31.2788 171.356 31.2788H169.521C169.066 31.2788 168.7 30.9057 168.708 30.4508L168.771 26.9091C168.778 26.4654 169.14 26.1099 169.584 26.1099H171.209C172.154 26.1099 172.856 25.9727 173.313 25.6982C173.771 25.4237 174.045 24.9206 174.137 24.1887L174.614 21.4327C174.682 21.0427 175.02 20.758 175.416 20.758H177.669C178.118 20.758 178.482 21.1223 178.482 21.5716V25.2963C178.482 25.7456 178.846 26.1099 179.296 26.1099H183.752C184.202 26.1099 184.566 26.4741 184.566 26.9235V30.6482C184.566 31.0975 184.202 31.4617 183.752 31.4617H179.296C178.846 31.4617 178.482 31.826 178.482 32.2753V41.4793C178.482 42.5771 178.741 43.37 179.26 43.8579C179.778 44.3458 180.571 44.5898 181.638 44.5898C182.218 44.5898 182.767 44.5288 183.285 44.4068C183.923 44.2649 184.703 44.7055 184.703 45.3595V49.3492C184.703 49.7023 184.476 50.0172 184.136 50.1143C183.408 50.3227 182.728 50.4634 182.096 50.5363C181.303 50.6278 180.602 50.6735 179.992 50.6735Z" fill="#38A56F"/>
<path d="M188.145 50.1246C187.696 50.1246 187.331 49.7604 187.331 49.311V26.9235C187.331 26.4741 187.696 26.1099 188.145 26.1099H191.91C192.362 26.1099 192.727 26.4773 192.724 26.9286L192.687 32.7811C192.685 33.0624 192.912 33.2914 193.194 33.2914C193.43 33.2914 193.635 33.1274 193.692 32.8978C194.082 31.3334 194.615 30.0161 195.291 28.9459C196.023 27.7871 196.937 26.918 198.035 26.3386C199.163 25.7592 200.49 25.4695 202.015 25.4695C204.79 25.4695 206.894 26.4453 208.327 28.397C209.791 30.3487 210.523 33.4134 210.523 37.5912V49.311C210.523 49.7604 210.159 50.1246 209.709 50.1246H204.704C204.254 50.1246 203.89 49.7604 203.89 49.311V38.3231C203.89 35.7615 203.509 33.9013 202.747 32.7425C202.015 31.5532 200.932 30.9586 199.499 30.9586C198.279 30.9586 197.258 31.3398 196.434 32.1021C195.611 32.8645 194.986 33.8708 194.559 35.1211C194.162 36.3409 193.949 37.7132 193.918 39.2379V49.311C193.918 49.7604 193.554 50.1246 193.105 50.1246H188.145Z" fill="#38A56F"/>
<path d="M223.873 50.765C222.257 50.765 220.793 50.6125 219.482 50.3076C218.171 50.0026 217.042 49.5605 216.097 48.9811C215.152 48.4016 214.389 47.7155 213.81 46.9226C213.356 46.2781 213.024 45.5774 212.814 44.8207C212.71 44.4504 212.921 44.074 213.277 43.9284L216.769 42.4997C217.248 42.3039 217.786 42.6063 218.026 43.064C218.196 43.3865 218.422 43.6969 218.704 43.9951C219.253 44.5745 219.985 45.0472 220.9 45.4132C221.845 45.7486 222.974 45.9163 224.285 45.9163C225.688 45.9163 226.77 45.7181 227.533 45.3217C228.295 44.8947 228.676 44.3001 228.676 43.5377C228.676 42.9583 228.463 42.5009 228.036 42.1654C227.609 41.83 226.984 41.5403 226.16 41.2963C225.337 41.0524 224.346 40.8237 223.187 40.6102C222.059 40.3358 220.9 40.046 219.711 39.7411C218.552 39.4361 217.469 39.0092 216.463 38.4603C215.487 37.9114 214.679 37.1948 214.039 36.3104C213.429 35.3956 213.124 34.2368 213.124 32.834C213.124 31.3702 213.52 30.0895 214.313 28.9916C215.106 27.8938 216.265 27.04 217.789 26.4301C219.314 25.7897 221.174 25.4695 223.37 25.4695C225.352 25.4695 227.09 25.7439 228.585 26.2928C230.079 26.8113 231.299 27.5736 232.244 28.58C233.045 29.3809 233.63 30.3153 234 31.3833C234.138 31.7835 233.902 32.2052 233.5 32.3391L229.762 33.585C229.288 33.7431 228.791 33.4331 228.592 32.9745C228.434 32.6092 228.218 32.2727 227.944 31.9649C227.487 31.416 226.862 31.0043 226.069 30.7299C225.306 30.4554 224.407 30.3182 223.37 30.3182C222.059 30.3182 221.037 30.5316 220.305 30.9586C219.604 31.3855 219.253 31.9496 219.253 32.651C219.253 33.2304 219.482 33.7031 219.939 34.069C220.427 34.435 221.098 34.7399 221.952 34.9839C222.806 35.1974 223.812 35.4261 224.971 35.67C226.191 35.914 227.38 36.2037 228.539 36.5391C229.698 36.8441 230.735 37.2558 231.649 37.7742C232.595 38.2926 233.342 38.9787 233.891 39.8326C234.44 40.6864 234.714 41.7843 234.714 43.126C234.714 44.7118 234.287 46.084 233.433 47.2428C232.579 48.3712 231.344 49.2403 229.728 49.8502C228.112 50.4601 226.16 50.765 223.873 50.765Z" fill="#38A56F"/>
</svg>
