<?xml version="1.0" encoding="UTF-8"?>
<svg id="Layer_1" xmlns="http://www.w3.org/2000/svg" viewBox="0 0 556.52 377.35">
  <path d="M278.51,20.43c79.52,0,159.03,0,238.55,0,9.03,0,15.86,5.08,17.71,13.26.35,1.56.43,3.21.43,4.82.02,73.88.03,147.76.01,221.64,0,16.18-11.84,30.32-28.03,33.44-2.88.55-5.86.85-8.79.86-45.08.05-90.15.03-135.23.04-19.1,0-33.66,13.42-35.22,32.5-.74,8.99-5.37,15.55-12.7,20.37-5.01,3.29-10.33,5.11-16.59,5.1-86.35-.14-172.7-.16-259.05-.02-10.59.02-18.14-8.26-18.13-18.2.15-98.53.15-197.06,0-295.59-.01-9.21,6.59-18.28,18.29-18.27,79.59.09,159.18.05,238.76.05Z"/>
</svg>