<svg width="20" height="21" viewBox="0 0 20 21" fill="none" xmlns="http://www.w3.org/2000/svg">
<path d="M10 20.1992C8.61667 20.1992 7.31667 19.9367 6.1 19.4117C4.88333 18.8867 3.825 18.1742 2.925 17.2742C2.025 16.3742 1.3125 15.3159 0.7875 14.0992C0.2625 12.8826 0 11.5826 0 10.1992H2C2 11.2992 2.20833 12.3367 2.625 13.3117C3.04167 14.2867 3.6125 15.1367 4.3375 15.8617C5.0625 16.5867 5.9125 17.1617 6.8875 17.5867C7.8625 18.0117 8.9 18.2242 10 18.2242C12.2333 18.2242 14.125 17.4492 15.675 15.8992C17.225 14.3492 18 12.4576 18 10.2242C18 7.99089 17.225 6.09922 15.675 4.54922C14.125 2.99922 12.2333 2.22422 10 2.22422C8.51667 2.22422 7.17083 2.58672 5.9625 3.31172C4.75417 4.03672 3.8 4.99922 3.1 6.19922H6V8.19922H0V2.19922H2V4.19922C2.91667 2.98255 4.06667 2.01172 5.45 1.28672C6.83333 0.561719 8.35 0.199219 10 0.199219C11.3833 0.199219 12.6833 0.461719 13.9 0.986719C15.1167 1.51172 16.175 2.22422 17.075 3.12422C17.975 4.02422 18.6875 5.08255 19.2125 6.29922C19.7375 7.51589 20 8.81589 20 10.1992C20 11.5826 19.7375 12.8826 19.2125 14.0992C18.6875 15.3159 17.975 16.3742 17.075 17.2742C16.175 18.1742 15.1167 18.8867 13.9 19.4117C12.6833 19.9367 11.3833 20.1992 10 20.1992Z" fill="#224750"/>
</svg>
