<svg xmlns="http://www.w3.org/2000/svg" width="16" height="17" viewBox="0 0 16 17" fill="none">
  <mask id="mask0_624_265" style="mask-type:alpha" maskUnits="userSpaceOnUse" x="0" y="0" width="16" height="17">
    <rect y="0.5" width="16" height="16" fill="#D9D9D9"/>
  </mask>
  <g mask="url(#mask0_624_265)">
    <path d="M8.1507 8.83331L9.66736 7.91665L11.184 8.83331L10.784 7.09998L12.1174 5.94998L10.3674 5.79998L9.66736 4.16665L8.96736 5.79998L7.21736 5.94998L8.55069 7.09998L8.1507 8.83331ZM8.46736 13.1666H12.2007C12.1229 13.4555 11.9896 13.6889 11.8007 13.8666C11.6118 14.0444 11.3674 14.1555 11.0674 14.2L3.80069 15.0833C3.43403 15.1389 3.10347 15.0528 2.80903 14.825C2.51458 14.5972 2.34514 14.3 2.30069 13.9333L1.41736 6.64998C1.37292 6.28331 1.46181 5.95554 1.68403 5.66665C1.90625 5.37776 2.20069 5.21109 2.56736 5.16665L3.33403 5.06665V6.39998L2.73403 6.48331L3.63403 13.7666L8.46736 13.1666ZM6.00069 11.8333C5.63403 11.8333 5.32014 11.7028 5.05903 11.4416C4.79792 11.1805 4.66736 10.8666 4.66736 10.5V3.16665C4.66736 2.79998 4.79792 2.48609 5.05903 2.22498C5.32014 1.96387 5.63403 1.83331 6.00069 1.83331H13.334C13.7007 1.83331 14.0146 1.96387 14.2757 2.22498C14.5368 2.48609 14.6674 2.79998 14.6674 3.16665V10.5C14.6674 10.8666 14.5368 11.1805 14.2757 11.4416C14.0146 11.7028 13.7007 11.8333 13.334 11.8333H6.00069ZM6.00069 10.5H13.334V3.16665H6.00069V10.5Z" fill="#9CA3AF"/>
  </g>
</svg>