<svg width="156" height="36" viewBox="0 0 156 36" fill="none" xmlns="http://www.w3.org/2000/svg">
<path d="M39.9391 33.3208C38.6241 33.3208 37.4405 33.1893 36.3885 32.9263C35.3566 32.6835 34.4664 32.3092 33.7179 31.8034C32.9895 31.2774 32.4129 30.63 31.988 29.8612C31.6396 29.1818 31.4187 28.42 31.3253 27.5756C31.2983 27.3316 31.453 27.1072 31.6865 27.0312L34.4397 26.1353C34.7787 26.025 35.1276 26.2693 35.1865 26.6208C35.2879 27.2254 35.4862 27.7491 35.7815 28.192C36.2064 28.799 36.8032 29.2441 37.572 29.5273C38.3408 29.8106 39.2007 29.9522 40.1516 29.9522C41.062 29.9522 41.8308 29.8409 42.458 29.6184C43.0852 29.3958 43.5606 29.1025 43.8843 28.7383C44.208 28.3539 44.3699 27.9391 44.3699 27.494C44.3699 26.968 44.1676 26.5431 43.7629 26.2194C43.3583 25.8957 42.8019 25.6226 42.0938 25.4C41.4059 25.1775 40.6169 24.9651 39.7267 24.7627C38.7353 24.5402 37.7541 24.2873 36.783 24.004C35.8321 23.7208 34.9621 23.3566 34.1731 22.9115C33.4043 22.4664 32.7872 21.8898 32.3219 21.1817C31.8768 20.4736 31.6542 19.5834 31.6542 18.5111C31.6542 17.277 31.9577 16.2148 32.5646 15.3246C33.1918 14.4142 34.1023 13.7061 35.2959 13.2003C36.4896 12.6945 37.9261 12.4416 39.6053 12.4416C41.3048 12.4416 42.7514 12.6945 43.945 13.2003C45.1589 13.6858 46.0997 14.3838 46.7674 15.2943C47.3561 16.0793 47.7089 16.998 47.8257 18.0505C47.8535 18.3013 47.6871 18.5286 47.444 18.5959L44.5979 19.3841C44.2544 19.4792 43.9173 19.2194 43.8671 18.8665C43.8187 18.5263 43.7334 18.2156 43.6112 17.9345C43.4089 17.4692 43.1256 17.0848 42.7615 16.7813C42.3973 16.4576 41.9421 16.2148 41.3958 16.053C40.8698 15.8911 40.2628 15.8102 39.575 15.8102C38.7859 15.8102 38.098 15.9113 37.5113 16.1136C36.9448 16.316 36.5098 16.5891 36.2064 16.933C35.9231 17.277 35.7815 17.6816 35.7815 18.1469C35.7815 18.6932 36.004 19.1484 36.4491 19.5126C36.9145 19.8565 37.5214 20.1398 38.27 20.3623C39.0388 20.5849 39.8784 20.7973 40.7889 20.9996C41.6588 21.1817 42.5389 21.4144 43.4291 21.6976C44.3396 21.9606 45.1792 22.3147 45.948 22.7598C46.737 23.1847 47.3642 23.7714 47.8295 24.52C48.3151 25.2483 48.5579 26.1688 48.5579 27.2816C48.5579 28.4955 48.2342 29.5577 47.5868 30.4681C46.9393 31.3785 45.9682 32.0867 44.6734 32.5924C43.3988 33.078 41.8207 33.3208 39.9391 33.3208Z" fill="#224750"/>
<path d="M50.768 32.8959C50.4701 32.8959 50.2287 32.6545 50.2287 32.3566V11.7366C50.2287 11.4388 50.4701 11.1973 50.768 11.1973H53.9987C54.2966 11.1973 54.538 11.4388 54.538 11.7366V22.2286C54.538 22.6612 55.0197 22.9146 55.3651 22.6542C55.6955 22.4053 56.0166 22.1471 56.3286 21.8797C56.9153 21.3739 57.4413 20.8479 57.9066 20.3016C58.3922 19.7554 58.8171 19.199 59.1812 18.6325C59.4948 18.1704 59.768 17.7151 60.0007 17.2665C60.0962 17.0826 60.2841 16.9634 60.4913 16.9634H64.367C64.7475 16.9634 65.0069 17.3464 64.8441 17.6903C64.5923 18.2222 64.2929 18.7588 63.9458 19.3002C63.4603 20.069 62.8735 20.7872 62.1857 21.4548C61.518 22.1023 60.7391 22.6586 59.8489 23.124C59.018 23.5583 58.1079 23.8604 57.1184 24.0304C56.996 24.0514 56.9052 24.1565 56.9052 24.2807C56.9052 24.437 57.0467 24.5551 57.2012 24.5312C58.425 24.3423 59.4492 24.379 60.2738 24.6414C61.1639 24.9246 61.8923 25.3798 62.4588 26.007C63.0455 26.614 63.5108 27.3221 63.8548 28.1313C64.1987 28.9204 64.5123 29.7195 64.7956 30.5288L65.2896 32.2041C65.3914 32.5496 65.1325 32.8959 64.7723 32.8959H61.1439C60.8993 32.8959 60.6853 32.7313 60.6226 32.4949L60.3344 31.4089C60.0512 30.4175 59.7376 29.5476 59.3937 28.799C59.0497 28.0504 58.5945 27.4738 58.028 27.0692C57.4818 26.6443 56.7231 26.4319 55.7519 26.4319H55.0773C54.7795 26.4319 54.538 26.6733 54.538 26.9712V32.3566C54.538 32.6545 54.2966 32.8959 53.9987 32.8959H50.768Z" fill="#224750"/>
<path d="M74.7723 32.8959C74.4744 32.8959 74.233 32.6545 74.233 32.3566V14.1035C74.233 13.8057 74.4744 13.5642 74.7723 13.5642H78.003C78.3009 13.5642 78.5424 13.8057 78.5424 14.1035V32.3566C78.5424 32.6545 78.3009 32.8959 78.003 32.8959H74.7723Z" fill="#224750"/>
<path d="M82.1067 32.8959C81.8089 32.8959 81.5674 32.6545 81.5674 32.3566V10.6228C81.5674 10.325 81.8089 10.0835 82.1067 10.0835H85.3375C85.6353 10.0835 85.8768 10.325 85.8768 10.6228V32.3566C85.8768 32.6545 85.6353 32.8959 85.3375 32.8959H82.1067Z" fill="#224750"/>
<path fill-rule="evenodd" clip-rule="evenodd" d="M67.4379 16.9634C67.14 16.9634 66.8986 17.2048 66.8986 17.5027V32.3566C66.8986 32.6545 67.14 32.8959 67.4379 32.8959H70.7293C71.0272 32.8959 71.2686 32.6545 71.2686 32.3566V17.5027C71.2686 17.2048 71.0272 16.9634 70.7293 16.9634H67.4379Z" fill="#224750"/>
<path d="M69.1139 14.5659C68.2642 14.5659 67.6067 14.3939 67.1413 14.05C66.6962 13.6858 66.4737 13.1598 66.4737 12.4719C66.4737 11.7638 66.6962 11.2277 67.1413 10.8635C67.6067 10.4993 68.2642 10.3172 69.1139 10.3172C69.9839 10.3172 70.6414 10.4993 71.0865 10.8635C71.5519 11.2277 71.7845 11.7638 71.7845 12.4719C71.7845 13.1396 71.5519 13.6555 71.0865 14.0197C70.6414 14.3838 69.9839 14.5659 69.1139 14.5659Z" fill="#224750"/>
<path d="M22.8385 13.8646C23.7117 14.3683 23.7116 15.6285 22.8385 16.1322L20.6074 17.4193C20.2026 17.6528 19.704 17.6528 19.2992 17.4193L13.2279 13.9157C12.8229 13.6819 12.3238 13.6819 11.9188 13.9159L7.15845 16.6635C6.2856 17.1671 6.28529 18.4267 7.1579 18.9307L10.6112 20.9239C11.484 21.4276 11.4841 22.6874 10.6113 23.1912L8.38147 24.4794C7.97642 24.7134 7.47725 24.7135 7.07211 24.4796L1.00366 20.975C0.59878 20.7413 0.349291 20.3094 0.349123 19.8419L0.347656 15.7538C0.347489 15.2861 0.596924 14.8538 1.00197 14.6199L11.9213 8.31662C12.3263 8.08289 12.8253 8.08298 13.2302 8.31687L22.8385 13.8646Z" fill="#38A56F"/>
<path fill-rule="evenodd" clip-rule="evenodd" d="M22.8385 16.1322L20.6074 17.4193C20.2026 17.6528 19.704 17.6528 19.2992 17.4193L13.2279 13.9157C12.8229 13.6819 12.3238 13.6819 11.9188 13.9159L7.15845 16.6635C6.2856 17.1671 6.28529 18.4267 7.1579 18.9307L10.6112 20.9239C11.484 21.4276 11.4841 22.6874 10.6113 23.1912L8.38147 24.4794C7.97642 24.7134 7.47725 24.7135 7.07211 24.4796L1.00366 20.975C0.59878 20.7413 0.349291 20.3094 0.349123 19.8419L0.347656 15.7538C0.347489 15.2861 0.596924 14.8538 1.00197 14.6199L11.9213 8.31662C12.3263 8.08289 12.8253 8.08298 13.2302 8.31687L22.8385 13.8646C23.7117 14.3683 23.7116 15.6285 22.8385 16.1322Z" fill="#38A56F"/>
<path d="M24.148 23.1395C24.5528 23.3732 24.8022 23.8051 24.8023 24.2725L24.8038 28.3607C24.804 28.8284 24.5546 29.2607 24.1495 29.4946L13.2322 35.7996C12.8272 36.0335 12.3281 36.0335 11.923 35.7996L2.88012 30.5767L2.31247 30.2495C1.43924 29.7461 1.4387 28.4861 2.3115 27.982L4.54178 26.6938C4.9467 26.46 5.44562 26.4599 5.85064 26.6936L11.9176 30.1967C12.3226 30.4306 12.8216 30.4307 13.2267 30.1968L17.9873 27.4492C18.8601 26.9455 18.8603 25.6859 17.9877 25.182L14.5395 23.1908C13.6667 22.6871 13.6664 21.4275 14.539 20.9236L16.7701 19.6349C17.1751 19.401 17.6741 19.4009 18.0792 19.6348L24.148 23.1395Z" fill="#38A56F"/>
<path fill-rule="evenodd" clip-rule="evenodd" d="M24.8023 24.2725L24.8038 28.3607C24.804 28.8284 24.5546 29.2607 24.1495 29.4946L13.2322 35.7996C12.8272 36.0335 12.3281 36.0335 11.923 35.7996L2.88012 30.5767L2.31247 30.2495C1.43924 29.7461 1.4387 28.4861 2.3115 27.982L4.54178 26.6938C4.9467 26.46 5.44562 26.4599 5.85064 26.6936L11.9176 30.1967C12.3226 30.4306 12.8216 30.4307 13.2267 30.1968L17.9873 27.4492C18.8601 26.9455 18.8603 25.6859 17.9877 25.182L14.5395 23.1908C13.6667 22.6871 13.6664 21.4275 14.539 20.9236L16.7701 19.6349C17.1751 19.401 17.6741 19.4009 18.0792 19.6348L24.148 23.1395C24.5528 23.3732 24.8022 23.8051 24.8023 24.2725Z" fill="#38A56F"/>
<path d="M89.2054 32.8961C88.9074 32.8961 88.6659 32.6546 88.6659 32.3566V7.20772C88.6659 6.90976 88.9074 6.66821 89.2054 6.66821H92.4944C92.7923 6.66821 93.0339 6.90976 93.0339 7.20772V32.3566C93.0339 32.6546 92.7923 32.8961 92.4944 32.8961H89.2054ZM90.8802 4.27188C90.0309 4.27188 89.3737 4.09999 88.9085 3.75621C88.4637 3.39221 88.2412 2.86643 88.2412 2.17887C88.2412 1.4711 88.4637 0.935208 88.9085 0.571208C89.3737 0.207208 90.0309 0.0252075 90.8802 0.0252075C91.7498 0.0252075 92.407 0.207208 92.8519 0.571208C93.317 0.935208 93.5495 1.4711 93.5495 2.17887C93.5495 2.84621 93.317 3.36188 92.8519 3.72588C92.407 4.08988 91.7498 4.27188 90.8802 4.27188Z" fill="#38A56F"/>
<path d="M96.3442 32.8961C96.0462 32.8961 95.8046 32.6546 95.8046 32.3566V17.5106C95.8046 17.2126 96.0462 16.9711 96.3442 16.9711H98.841C99.1403 16.9711 99.3824 17.2147 99.3805 17.514L99.3558 21.395C99.3546 21.5816 99.5055 21.7334 99.6921 21.7334C99.849 21.7334 99.9846 21.6247 100.023 21.4724C100.281 20.435 100.634 19.5615 101.083 18.8518C101.568 18.0833 102.175 17.507 102.903 17.1228C103.651 16.7385 104.531 16.5464 105.542 16.5464C107.382 16.5464 108.777 17.1935 109.728 18.4878C110.698 19.782 111.184 21.8143 111.184 24.5848V32.3566C111.184 32.6546 110.942 32.8961 110.644 32.8961H107.325C107.027 32.8961 106.785 32.6546 106.785 32.3566V25.0701C106.785 23.3714 106.533 22.1379 106.027 21.3694C105.542 20.5808 104.824 20.1864 103.873 20.1864C103.064 20.1864 102.387 20.4392 101.841 20.9448C101.295 21.4503 100.88 22.1177 100.597 22.9468C100.334 23.7557 100.193 24.6657 100.173 25.6768V32.3566C100.173 32.6546 99.9311 32.8961 99.6331 32.8961H96.3442Z" fill="#38A56F"/>
<path d="M119.522 33.2601C117.743 33.2601 116.428 32.795 115.579 31.8648C114.75 30.9143 114.335 29.4078 114.335 27.3451V20.9383C114.335 20.6403 114.094 20.3988 113.796 20.3988H112.579C112.278 20.3988 112.035 20.1514 112.04 19.8497L112.081 17.5011C112.087 17.2069 112.327 16.9711 112.621 16.9711H113.698C114.325 16.9711 114.79 16.8801 115.094 16.6981C115.397 16.5161 115.579 16.1824 115.64 15.6971L115.957 13.8695C116.001 13.6109 116.226 13.4221 116.488 13.4221H117.982C118.28 13.4221 118.521 13.6636 118.521 13.9616V16.4316C118.521 16.7295 118.763 16.9711 119.061 16.9711H122.016C122.314 16.9711 122.556 17.2126 122.556 17.5106V19.9806C122.556 20.2786 122.314 20.5201 122.016 20.5201H119.061C118.763 20.5201 118.521 20.7616 118.521 21.0596V27.1631C118.521 27.8911 118.693 28.4169 119.037 28.7404C119.381 29.064 119.907 29.2258 120.614 29.2258C120.999 29.2258 121.363 29.1853 121.706 29.1044C122.13 29.0104 122.647 29.3025 122.647 29.7362V32.3819C122.647 32.6161 122.496 32.8249 122.271 32.8893C121.788 33.0275 121.337 33.1208 120.918 33.1691C120.392 33.2298 119.927 33.2601 119.522 33.2601Z" fill="#38A56F"/>
<path d="M124.929 32.8961C124.631 32.8961 124.39 32.6546 124.39 32.3566V17.5106C124.39 17.2126 124.631 16.9711 124.929 16.9711H127.426C127.725 16.9711 127.968 17.2147 127.966 17.514L127.941 21.395C127.94 21.5816 128.091 21.7334 128.277 21.7334C128.434 21.7334 128.57 21.6247 128.608 21.4724C128.866 20.435 129.22 19.5615 129.668 18.8518C130.153 18.0833 130.76 17.507 131.488 17.1228C132.236 16.7385 133.116 16.5464 134.127 16.5464C135.967 16.5464 137.362 17.1935 138.313 18.4878C139.283 19.782 139.769 21.8143 139.769 24.5848V32.3566C139.769 32.6546 139.527 32.8961 139.229 32.8961H135.91C135.612 32.8961 135.37 32.6546 135.37 32.3566V25.0701C135.37 23.3714 135.118 22.1379 134.612 21.3694C134.127 20.5808 133.409 20.1864 132.458 20.1864C131.65 20.1864 130.972 20.4392 130.426 20.9448C129.88 21.4503 129.466 22.1177 129.182 22.9468C128.92 23.7557 128.778 24.6657 128.758 25.6768V32.3566C128.758 32.6546 128.516 32.8961 128.218 32.8961H124.929Z" fill="#38A56F"/>
<path d="M148.622 33.3208C147.55 33.3208 146.579 33.2197 145.71 33.0174C144.84 32.8152 144.092 32.522 143.465 32.1378C142.838 31.7535 142.333 31.2985 141.949 30.7728C141.648 30.3453 141.428 29.8807 141.288 29.3789C141.219 29.1333 141.359 28.8837 141.595 28.7872L143.911 27.8398C144.228 27.7099 144.585 27.9104 144.745 28.214C144.857 28.4278 145.007 28.6336 145.194 28.8314C145.558 29.2157 146.044 29.5291 146.65 29.7718C147.277 29.9942 148.025 30.1054 148.895 30.1054C149.825 30.1054 150.543 29.974 151.049 29.7111C151.554 29.428 151.807 29.0337 151.807 28.5281C151.807 28.1439 151.665 27.8405 151.382 27.6181C151.099 27.3957 150.685 27.2035 150.139 27.0418C149.593 26.88 148.935 26.7283 148.167 26.5868C147.419 26.4048 146.65 26.2127 145.862 26.0104C145.093 25.8082 144.375 25.5251 143.708 25.1611C143.061 24.7971 142.525 24.3219 142.1 23.7354C141.696 23.1288 141.494 22.3603 141.494 21.4301C141.494 20.4594 141.756 19.6101 142.282 18.8821C142.808 18.1541 143.576 17.5879 144.588 17.1834C145.599 16.7588 146.832 16.5464 148.288 16.5464C149.603 16.5464 150.755 16.7284 151.746 17.0924C152.737 17.4362 153.546 17.9418 154.173 18.6091C154.704 19.1402 155.092 19.7599 155.337 20.4681C155.429 20.7335 155.272 21.0131 155.006 21.1019L152.527 21.9281C152.213 22.0329 151.883 21.8274 151.751 21.5233C151.646 21.281 151.503 21.0579 151.322 20.8538C151.018 20.4898 150.604 20.2168 150.078 20.0348C149.572 19.8528 148.976 19.7618 148.288 19.7618C147.419 19.7618 146.741 19.9033 146.256 20.1864C145.791 20.4695 145.558 20.8437 145.558 21.3088C145.558 21.693 145.71 22.0064 146.013 22.2491C146.337 22.4918 146.782 22.694 147.348 22.8558C147.914 22.9973 148.581 23.149 149.35 23.3108C150.159 23.4725 150.947 23.6647 151.716 23.8871C152.484 24.0893 153.172 24.3623 153.779 24.7061C154.405 25.0499 154.901 25.5049 155.265 26.0711C155.629 26.6373 155.811 27.3653 155.811 28.2551C155.811 29.3067 155.528 30.2167 154.962 30.9851C154.395 31.7333 153.576 32.3097 152.505 32.7141C151.433 33.1185 150.139 33.3208 148.622 33.3208Z" fill="#38A56F"/>
</svg>
