<svg xmlns="http://www.w3.org/2000/svg" width="20" height="19" viewBox="0 0 20 19" fill="none">
  <path d="M9.00537 1.43207C9.56792 1.10728 10.2611 1.10728 10.8236 1.43207L16.3667 4.63236C16.9292 4.95716 17.2758 5.55739 17.2758 6.20697V12.6075C17.2758 13.2572 16.9292 13.8574 16.3667 14.1821L10.8236 17.3825C10.2611 17.7073 9.56792 17.7073 9.00537 17.3825L3.46232 14.1821C2.89977 13.8574 2.55322 13.2572 2.55322 12.6075V6.20697C2.55322 5.55739 2.89977 4.95716 3.46232 4.63236L9.00537 1.43207Z" fill="url(#paint0_linear_501_1008)"/>
  <path d="M11.0174 1.09711C10.3353 0.703307 9.4949 0.703307 8.81281 1.09711L3.26976 4.29741C2.58767 4.69122 2.16748 5.419 2.16748 6.20661V12.6072C2.16748 13.3948 2.58767 14.1226 3.26976 14.5164L8.81281 17.7167C9.4949 18.1105 10.3353 18.1105 11.0174 17.7167L16.5605 14.5164C17.2426 14.1226 17.6628 13.3948 17.6628 12.6072V6.20661C17.6628 5.419 17.2426 4.69122 16.5605 4.29741L11.0174 1.09711Z" stroke="url(#paint1_linear_501_1008)" stroke-width="0.772733"/>
  <path d="M6.66477 9.21773L10.4758 4.6823C10.6901 4.42726 11.1007 4.64473 11.0099 4.96518L10.1622 7.95632C10.1078 8.14834 10.247 8.34075 10.4465 8.34918L13.0887 8.46091C13.3401 8.4715 13.4741 8.76197 13.319 8.9601L8.97767 14.5064C8.76548 14.7775 8.33572 14.5512 8.43946 14.223L9.70033 10.234C9.76169 10.04 9.62205 9.84078 9.41875 9.83221L6.88826 9.72526C6.63194 9.71436 6.49972 9.41416 6.66477 9.21773Z" fill="url(#paint2_linear_501_1008)"/>
  <mask id="mask0_501_1008" style="mask-type:luminance" maskUnits="userSpaceOnUse" x="2" y="1" width="16" height="17">
    <path d="M9.00653 1.43128C9.56839 1.10689 10.2606 1.10689 10.8225 1.43128L16.3678 4.63288C16.9297 4.95727 17.2758 5.55675 17.2758 6.20552V12.6087C17.2758 13.2575 16.9297 13.857 16.3678 14.1814L10.8225 17.383C10.2606 17.7074 9.56839 17.7074 9.00653 17.383L3.46118 14.1814C2.89934 13.857 2.55322 13.2575 2.55322 12.6087V6.20552C2.55322 5.55675 2.89934 4.95727 3.46118 4.63288L9.00653 1.43128Z" fill="url(#paint3_linear_501_1008)"/>
  </mask>
  <g mask="url(#mask0_501_1008)">
    <g opacity="0.33">
      <path d="M20.3237 3.60059L-0.553223 15.4731L1.58609 19.2284L22.463 7.35589L20.3237 3.60059Z" fill="white"/>
    </g>
    <g opacity="0.4">
      <path d="M20.3417 9.51758L-0.535156 21.3901L-0.04177 22.2562L20.8351 10.3837L20.3417 9.51758Z" fill="url(#paint4_linear_501_1008)"/>
    </g>
  </g>
  <path d="M13.0017 3.84099L12.8852 3.78871C12.7097 3.70989 12.5056 3.78922 12.4293 3.96589L11.9397 5.10054C11.8634 5.27721 11.9439 5.48433 12.1195 5.56315L12.2359 5.61543C12.4114 5.69425 12.6155 5.61492 12.6918 5.43825L13.1814 4.3036C13.2577 4.12693 13.1772 3.91981 13.0017 3.84099Z" fill="url(#paint5_linear_501_1008)"/>
  <path d="M14.223 6.63669L14.1721 6.55578C14.0698 6.39283 13.8559 6.34562 13.6945 6.45031L13.3449 6.67704C13.1834 6.78173 13.1355 6.9987 13.2379 7.16164L13.2887 7.24255C13.3911 7.40549 13.6049 7.45271 13.7663 7.34802L14.1159 7.12129C14.2774 7.0166 14.3253 6.79963 14.223 6.63669Z" fill="url(#paint6_linear_501_1008)"/>
  <path d="M13.4746 11.8629L13.0538 11.5539C12.8987 11.44 12.6824 11.4747 12.5708 11.6314L12.2643 12.0617C12.1526 12.2185 12.1879 12.4378 12.343 12.5517L12.7638 12.8608C12.9189 12.9747 13.1352 12.94 13.2468 12.7832L13.5533 12.3529C13.665 12.1962 13.6297 11.9768 13.4746 11.8629Z" fill="url(#paint7_linear_501_1008)"/>
  <path d="M7.13422 5.38082L6.96295 5.25505C6.80786 5.14116 6.59163 5.17588 6.47999 5.3326L6.35404 5.50941C6.2424 5.66613 6.27762 5.88551 6.43272 5.9994L6.60399 6.12518C6.75908 6.23907 6.97531 6.20435 7.08695 6.04763L7.2129 5.87082C7.32454 5.7141 7.28931 5.49472 7.13422 5.38082Z" fill="url(#paint8_linear_501_1008)"/>
  <path d="M4.66387 11.9555L4.72909 12.1986C4.77893 12.3845 4.97065 12.4972 5.1573 12.4505L6.35243 12.151C6.53908 12.1042 6.64999 11.9157 6.60014 11.7298L6.53493 11.4866C6.48509 11.3008 6.29337 11.188 6.10672 11.2348L4.91159 11.5343C4.72494 11.581 4.61403 11.7696 4.66387 11.9555Z" fill="url(#paint9_linear_501_1008)"/>
  <defs>
    <linearGradient id="paint0_linear_501_1008" x1="2.30558" y1="1.67154" x2="16.5089" y2="16.0017" gradientUnits="userSpaceOnUse">
      <stop stop-color="#FCCF5A"/>
      <stop offset="0.961078" stop-color="#FF9E2F"/>
    </linearGradient>
    <linearGradient id="paint1_linear_501_1008" x1="3.36298" y1="3.56312" x2="15.936" y2="15.2507" gradientUnits="userSpaceOnUse">
      <stop stop-color="#FFCE6F"/>
      <stop offset="1" stop-color="#E0870B"/>
    </linearGradient>
    <linearGradient id="paint2_linear_501_1008" x1="11.5276" y1="3.61465" x2="11.0066" y2="20.7039" gradientUnits="userSpaceOnUse">
      <stop stop-color="white"/>
      <stop offset="1" stop-color="#FFEAA2"/>
    </linearGradient>
    <linearGradient id="paint3_linear_501_1008" x1="0.61755" y1="-0.421072" x2="16.5551" y2="19.2354" gradientUnits="userSpaceOnUse">
      <stop stop-color="#A9CDFF"/>
      <stop offset="1" stop-color="#0755C2"/>
    </linearGradient>
    <linearGradient id="paint4_linear_501_1008" x1="17.7765" y1="12.036" x2="7.04418" y2="18.5401" gradientUnits="userSpaceOnUse">
      <stop stop-color="white" stop-opacity="0"/>
      <stop offset="0.509424" stop-color="white"/>
      <stop offset="1" stop-color="white" stop-opacity="0"/>
    </linearGradient>
    <linearGradient id="paint5_linear_501_1008" x1="12.9434" y1="3.81485" x2="12.1519" y2="5.5777" gradientUnits="userSpaceOnUse">
      <stop stop-color="white"/>
      <stop offset="1" stop-color="#FECC57"/>
    </linearGradient>
    <linearGradient id="paint6_linear_501_1008" x1="14.1975" y1="6.59623" x2="13.2547" y2="7.18843" gradientUnits="userSpaceOnUse">
      <stop stop-color="white"/>
      <stop offset="1" stop-color="#FECC57"/>
    </linearGradient>
    <linearGradient id="paint7_linear_501_1008" x1="13.7796" y1="12.8841" x2="12.2512" y2="11.7029" gradientUnits="userSpaceOnUse">
      <stop stop-color="white"/>
      <stop offset="1" stop-color="#FECC57"/>
    </linearGradient>
    <linearGradient id="paint8_linear_501_1008" x1="6.05126" y1="5.15712" x2="7.19896" y2="5.94644" gradientUnits="userSpaceOnUse">
      <stop stop-color="white"/>
      <stop offset="1" stop-color="#FECC57"/>
    </linearGradient>
    <linearGradient id="paint9_linear_501_1008" x1="4.5039" y1="12.1114" x2="6.8151" y2="11.6869" gradientUnits="userSpaceOnUse">
      <stop stop-color="white"/>
      <stop offset="1" stop-color="#FECC57"/>
    </linearGradient>
  </defs>
</svg>